<?xml version="1.0" standalone="no"?>
<!DOCTYPE svg PUBLIC "-//W3C//DTD SVG 20010904//EN"
 "http://www.w3.org/TR/2001/REC-SVG-20010904/DTD/svg10.dtd">
<svg version="1.0" xmlns="http://www.w3.org/2000/svg"
 width="2000.000000pt" height="2000.000000pt" viewBox="0 0 2000.000000 2000.000000"
 preserveAspectRatio="xMidYMid meet">
<metadata>
Created by potrace 1.14, written by Peter Selinger 2001-2017
</metadata>
<g transform="translate(0.000000,2000.000000) scale(0.100000,-0.100000)"
fill="#000000" stroke="none">
<path d="M8161 12104 c-31 -33 -83 -93 -116 -134 -33 -41 -64 -80 -70 -86 -34
-38 -245 -328 -315 -434 -109 -165 -191 -331 -198 -399 -4 -50 -3 -52 40 -94
24 -23 57 -52 72 -64 62 -51 2 -66 -109 -29 -59 20 -92 25 -154 23 -72 -2 -84
-6 -125 -35 -25 -18 -54 -32 -64 -31 -53 5 -74 -15 -27 -27 18 -5 33 -23 55
-70 48 -99 167 -217 288 -285 l43 -24 -7 -50 c-15 -105 -3 -178 46 -275 18
-37 90 -145 122 -185 5 -5 38 -48 73 -95 75 -98 85 -110 230 -285 130 -156
243 -275 263 -275 24 0 -75 158 -217 344 -84 111 0 30 109 -104 67 -83 90
-106 90 -93 0 14 -31 72 -63 118 l-21 30 22 -19 c40 -34 42 -11 4 49 -57 90
-58 92 -35 72 32 -28 40 -2 11 38 -13 19 -41 53 -63 77 -87 97 -96 110 -36 51
58 -57 81 -73 81 -57 0 3 -17 31 -37 62 -34 50 -38 64 -40 125 -1 38 5 87 13
110 49 144 154 257 237 257 13 0 62 -18 108 -39 173 -81 506 -168 749 -197 25
-3 54 -7 66 -8 11 -2 52 -7 90 -11 38 -4 80 -9 94 -11 14 -2 91 -6 171 -10
109 -5 148 -4 154 5 4 7 5 14 2 17 -2 3 -101 25 -218 50 -118 24 -245 51 -284
59 -225 47 -395 127 -412 193 -10 42 -6 61 22 98 37 48 95 79 284 149 291 109
427 170 509 228 23 17 42 36 42 44 0 18 0 18 -83 -26 -111 -59 -342 -132 -522
-167 -22 -4 -44 -8 -50 -9 -15 -4 -154 -24 -200 -30 -144 -18 -380 -23 -469
-11 -98 14 -241 90 -308 164 -53 58 -74 109 -77 180 -3 75 22 136 96 232 27
36 52 73 56 83 6 17 3 16 -29 -4 l-36 -22 33 44 c39 51 75 126 66 136 -4 3
-25 -12 -47 -35 -22 -22 -40 -38 -40 -35 0 3 22 35 48 72 70 96 94 139 83 145
-5 3 -24 -6 -42 -21 l-33 -28 20 35 c74 124 97 180 73 180 -14 0 -22 -10 -93
-103 -32 -42 -60 -77 -62 -77 -2 0 21 37 50 83 60 92 116 196 164 305 27 60
30 76 21 94 -11 21 -12 21 -25 3 -8 -10 -14 -23 -14 -27 0 -11 -116 -202 -156
-258 -60 -82 -65 -86 -25 -20 103 169 204 353 205 372 2 40 -25 30 -83 -28z"/>
<path d="M1595 11666 c-94 -18 -181 -52 -218 -86 l-31 -27 0 -807 c0 -582 3
-809 11 -817 22 -22 99 -28 268 -24 212 6 188 4 268 22 49 11 67 19 68 31 0 9
2 379 2 821 2 596 -1 811 -10 832 -19 46 -64 62 -183 65 -60 2 -135 -3 -175
-10z"/>
<path d="M205 11522 c-75 -7 -135 -25 -159 -47 l-26 -24 0 -749 c0 -583 3
-752 12 -765 7 -9 29 -22 48 -27 35 -10 362 -6 430 5 75 12 129 27 138 38 5 7
9 114 8 240 l-1 229 195 -6 c107 -3 200 -2 207 2 35 22 65 162 65 301 -1 101
-13 147 -43 156 -21 7 -399 -4 -411 -11 -9 -6 -9 -1 -10 71 0 97 -14 88 125
81 67 -3 168 -9 224 -12 118 -7 141 -2 154 34 42 111 48 437 8 477 -9 9 -880
15 -964 7z"/>
<path d="M11007 11524 c-1 -1 -40 -4 -87 -8 -47 -3 -100 -10 -117 -15 -18 -5
-33 -8 -33 -6 0 7 -105 -32 -155 -58 -139 -70 -202 -180 -203 -349 0 -132 52
-241 149 -314 l28 -21 -53 -46 c-97 -83 -144 -195 -144 -341 0 -191 77 -321
240 -400 133 -65 222 -81 458 -81 365 0 580 51 718 171 65 56 70 77 74 317 l2
137 63 0 c72 0 77 6 99 99 27 112 4 254 -45 280 -11 6 -169 11 -397 12 -490 2
-557 13 -562 91 -1 20 3 40 10 45 46 37 160 30 323 -17 57 -17 109 -30 117
-30 20 0 51 37 71 85 21 49 67 240 67 276 0 82 -150 146 -390 165 -70 6 -229
11 -233 8z m283 -1089 l0 -74 -32 -9 c-18 -5 -66 -8 -107 -7 -64 1 -77 5 -93
24 -46 58 3 115 110 128 26 3 48 6 49 7 1 0 17 2 37 3 l36 2 0 -74z"/>
<path d="M12825 11513 c-75 -14 -100 -26 -116 -55 -9 -16 -12 -218 -12 -766 0
-826 -5 -765 69 -783 37 -9 352 -5 404 5 14 2 43 7 65 10 55 7 95 23 96 38 1
7 2 112 3 233 l1 220 195 0 c107 0 201 4 208 8 34 22 60 147 60 290 0 94 -10
145 -30 159 -7 4 -108 6 -224 2 l-211 -6 1 74 1 73 85 -1 c47 -1 153 -4 235
-8 83 -3 155 -3 161 1 17 12 43 98 52 173 8 62 7 248 -1 280 -10 43 -20 60
-35 61 -9 1 -225 2 -480 3 -317 1 -483 -3 -527 -11z"/>
<path d="M2747 11244 c-1 -1 -29 -4 -62 -8 -187 -20 -367 -106 -455 -218 -96
-121 -131 -257 -125 -483 6 -252 61 -398 188 -505 120 -100 248 -139 482 -145
211 -5 323 16 452 85 176 94 271 229 310 440 3 14 6 81 8 150 8 294 -77 503
-241 592 -72 39 -189 76 -269 84 -65 6 -282 13 -288 8z m130 -364 c6 -8 15
-31 18 -50 4 -19 9 -46 12 -60 15 -77 8 -388 -10 -470 -18 -76 -44 -99 -94
-83 -32 11 -48 49 -63 148 -9 64 -6 376 5 435 20 109 80 145 132 80z"/>
<path d="M4611 11238 c-115 -18 -251 -92 -293 -160 -21 -34 -42 -45 -43 -22
-1 5 -4 27 -9 49 -17 90 -61 118 -186 118 -105 -1 -213 -23 -294 -62 -111 -53
-100 24 -100 -640 0 -396 4 -585 11 -592 22 -22 93 -28 268 -24 99 2 190 6
202 9 11 2 42 8 67 11 25 4 51 14 57 21 9 11 12 107 12 357 -1 394 -1 392 72
403 58 8 139 -3 263 -37 117 -31 141 -33 164 -12 59 53 101 221 102 410 1 88
0 93 -29 122 -46 49 -145 67 -264 49z"/>
<path d="M5657 11244 c-1 -1 -30 -4 -63 -7 -175 -17 -415 -100 -477 -165 -24
-25 -25 -31 -16 -75 11 -60 47 -134 97 -197 56 -73 71 -77 150 -36 128 66 190
86 266 89 82 2 130 -34 142 -110 l6 -38 -89 -1 c-172 -1 -311 -26 -423 -77
-167 -75 -253 -218 -235 -390 19 -171 98 -276 245 -328 54 -19 86 -23 190 -23
116 0 129 2 175 26 65 34 110 80 131 135 19 50 30 46 38 -12 22 -138 9 -130
209 -130 207 0 333 13 365 38 10 8 12 97 11 411 0 221 -5 429 -10 462 -40 283
-241 421 -621 428 -49 1 -90 1 -91 0z m107 -869 c-1 -121 -3 -137 -20 -150
-21 -16 -52 -19 -71 -7 -39 25 -54 177 -22 232 26 45 85 85 104 70 6 -5 10
-64 9 -145z"/>
<path d="M14648 11245 c-2 -2 -28 -5 -58 -8 -186 -20 -419 -102 -474 -168 -18
-22 -23 -36 -19 -61 14 -93 99 -234 160 -266 19 -10 35 -6 110 32 134 66 192
82 290 77 41 -1 88 -48 97 -97 4 -20 5 -38 2 -41 -3 -3 -51 -7 -108 -8 -128
-4 -273 -26 -343 -54 -209 -81 -306 -216 -290 -404 20 -248 176 -372 456 -363
86 2 105 6 161 34 48 24 71 43 96 79 17 27 32 56 32 65 0 19 16 33 23 21 3 -5
8 -26 11 -48 14 -87 19 -105 34 -117 21 -18 373 -16 457 1 106 23 96 -23 94
434 -1 410 -6 487 -35 573 -31 93 -117 194 -201 237 -42 22 -185 63 -250 72
-51 7 -240 14 -245 10z m116 -853 c0 -70 -4 -137 -8 -149 -8 -25 -37 -37 -71
-29 -52 13 -71 162 -29 240 20 39 75 79 98 70 7 -3 11 -44 10 -132z"/>
<path d="M17952 11229 c-39 -10 -83 -24 -99 -32 -42 -22 -122 -96 -139 -128
-20 -39 -32 -36 -39 9 -20 117 -58 145 -194 144 -145 -1 -355 -63 -382 -114
-14 -25 -16 -1165 -3 -1178 23 -22 97 -29 263 -25 97 2 185 5 196 8 11 3 43 8
70 11 28 4 57 11 65 16 11 7 14 88 14 479 1 321 4 473 12 481 19 19 71 20 89
1 35 -40 38 -80 40 -524 1 -263 6 -442 12 -448 22 -22 86 -28 262 -24 263 6
336 18 343 58 6 34 2 827 -5 867 -3 19 -9 58 -12 85 -13 94 -54 194 -100 240
-80 80 -246 112 -393 74z"/>
<path d="M19257 11244 c-1 -1 -31 -4 -67 -8 -171 -15 -395 -93 -472 -164 -23
-21 -26 -31 -22 -61 14 -85 91 -220 148 -259 l33 -23 90 45 c155 78 278 99
338 60 27 -18 55 -72 55 -106 0 -22 -3 -23 -72 -22 -239 4 -466 -63 -571 -168
-91 -91 -125 -223 -93 -361 48 -205 193 -299 451 -293 85 2 108 7 150 29 66
34 110 78 131 133 20 52 30 47 39 -18 11 -78 20 -102 46 -115 17 -9 74 -11
199 -8 181 4 225 8 298 27 l43 11 -4 431 c-2 237 -7 447 -10 466 -15 79 -41
140 -87 201 -78 103 -169 153 -339 185 -68 13 -275 26 -284 18z m107 -856 c-1
-67 -2 -130 -3 -139 -1 -20 -53 -43 -79 -35 -59 19 -68 196 -12 264 25 30 71
53 84 42 7 -5 10 -56 10 -132z"/>
<path d="M15887 11224 c-1 -2 -23 -5 -47 -7 -136 -14 -285 -71 -296 -112 -3
-13 -4 -207 -1 -432 5 -413 6 -434 46 -563 45 -145 183 -224 391 -225 175 0
272 47 321 155 13 28 26 47 31 42 4 -4 11 -36 14 -71 11 -104 15 -106 191
-106 232 1 374 18 386 48 2 6 5 280 5 606 0 654 2 630 -61 650 -49 16 -113 19
-212 10 -146 -14 -313 -64 -337 -103 -4 -6 -8 -203 -8 -438 0 -415 -1 -429
-20 -448 -34 -34 -93 -21 -110 26 -18 47 -23 141 -24 514 -1 269 -5 381 -14
397 -17 31 -87 54 -175 57 -43 1 -79 1 -80 0z"/>
<path d="M5620 8733 c0 -43 -4 -63 -12 -64 -7 -1 -33 -1 -58 -1 -25 0 -48 -5
-52 -12 -4 -6 -8 -64 -8 -128 l0 -118 65 0 65 0 0 -62 0 -63 242 1 c134 0 248
-1 254 -3 7 -3 11 -46 11 -129 l0 -124 -191 2 -190 3 -1 60 0 60 -126 2 -126
2 -1 -64 0 -65 64 0 64 0 0 -63 0 -62 303 1 c166 1 309 2 318 3 13 1 16 12 15
59 l-1 57 63 3 62 3 0 128 0 128 -62 -1 -63 -1 1 63 1 62 -61 0 c-34 1 -147 1
-253 1 -138 0 -192 4 -195 12 -3 10 -2 161 1 222 1 19 7 20 179 19 97 -1 183
-2 190 -3 8 -1 12 -15 11 -43 -3 -84 -13 -78 126 -78 l125 0 0 64 0 63 -62 -1
-63 -1 -1 55 c-1 30 -2 60 -3 65 -1 6 -114 10 -316 10 l-315 0 0 -62z"/>
<path d="M7919 8792 c-11 -2 -15 -18 -15 -62 0 -34 5 -60 11 -61 33 -4 213 -4
228 -1 14 4 17 15 17 63 0 54 -2 59 -22 60 -67 3 -206 4 -219 1z"/>
<path d="M9704 8792 l-21 -3 1 -442 1 -442 377 0 c421 0 385 -7 383 75 l-1 45
-249 3 c-137 1 -252 6 -255 11 -3 5 -5 176 -4 380 1 261 -2 371 -10 372 -32 3
-204 4 -222 1z"/>
<path d="M12605 8775 c-2 -11 -3 -211 -2 -445 l2 -425 125 0 125 0 2 100 c0
55 2 112 2 126 l1 27 125 0 125 -1 0 -63 0 -64 65 0 64 0 -1 -55 c-1 -30 2
-58 6 -62 4 -4 61 -8 127 -8 l119 -1 0 63 0 63 -60 0 c-33 0 -61 5 -61 10 -1
6 -2 34 -3 63 l-1 52 -59 2 c-32 1 -60 3 -61 5 -9 9 -10 118 0 121 5 2 34 4
62 3 29 -1 54 3 56 9 2 5 3 34 2 63 l-1 52 63 0 63 0 0 65 0 65 -125 0 c-141
0 -126 10 -129 -85 -1 -44 8 -40 -103 -44 -21 -1 -23 -6 -23 -63 l0 -63 -120
0 c-65 1 -122 4 -126 8 -4 4 -7 115 -7 247 0 159 -3 243 -10 247 -6 4 -62 7
-124 7 -106 1 -114 0 -118 -19z"/>
<path d="M6635 8228 c-1 -172 3 -315 6 -318 4 -3 61 -5 126 -5 l118 0 5 190 5
191 58 -1 c31 -1 58 1 58 4 1 3 2 32 3 64 l2 57 -63 0 -63 0 0 65 0 65 -128 0
-127 0 0 -312z"/>
<path d="M7018 8523 c-2 -10 -4 -38 -3 -63 l1 -45 189 0 190 0 1 63 1 62 -188
0 c-169 0 -187 -2 -191 -17z"/>
<path d="M7779 8530 c0 -5 -1 -26 -1 -45 0 -83 -4 -77 62 -73 34 2 61 -1 63
-7 2 -5 3 -91 3 -190 l-1 -180 -127 -3 -128 -3 0 -59 c0 -33 3 -61 8 -61 4 -1
175 -2 380 -3 l372 -1 1 27 c1 16 1 39 1 53 0 14 0 30 -1 35 -1 6 -50 10 -126
10 l-125 0 -1 138 c0 75 0 190 0 255 l1 117 -190 0 c-119 0 -190 -4 -191 -10z"/>
<path d="M10700 8475 l0 -65 254 0 253 0 -1 -52 c0 -29 -4 -58 -8 -63 -4 -7
-93 -10 -248 -10 -184 1 -243 -2 -247 -11 -2 -7 -5 -36 -6 -65 l-2 -53 -62 2
-63 1 0 -65 0 -64 65 0 65 0 0 -63 0 -62 380 0 380 0 0 252 0 253 -22 1 c-13
0 -41 1 -63 2 l-40 2 -1 50 c-1 28 -2 56 -3 63 -1 9 -71 12 -316 12 l-315 0 0
-65z m491 -321 c13 -4 16 -17 16 -64 l-1 -60 -190 2 -190 3 -1 61 -1 61 176 1
c96 0 182 -2 191 -4z"/>
<path d="M11587 8267 c1 -149 2 -292 2 -317 l1 -45 125 0 125 -1 1 36 c0 19 0
133 0 253 l-1 217 193 0 192 0 0 -252 0 -253 125 0 125 0 1 253 0 252 -63 0
-63 0 0 65 0 65 -382 0 -383 0 2 -273z"/>
<path d="M13747 8533 c-3 -7 -2 -92 2 -115 0 -4 114 -9 253 -10 l252 -3 0 -58
c1 -44 -2 -57 -14 -58 -8 -1 -116 -3 -240 -4 -124 -1 -232 -3 -240 -3 -12 -2
-15 -14 -15 -54 1 -29 0 -58 -2 -63 -2 -6 -29 -9 -63 -7 l-60 3 0 -66 0 -65
64 0 63 0 -1 -60 c-2 -35 2 -61 8 -63 10 -3 731 -1 748 2 3 0 7 114 7 251 l1
250 -27 1 c-16 1 -45 0 -65 -1 l-38 -2 0 66 0 66 -314 0 c-173 0 -317 -3 -319
-7z m506 -425 c-1 -27 -2 -55 -2 -63 -1 -13 -29 -15 -190 -15 l-189 0 0 64 1
63 190 -1 191 -1 -1 -47z"/>
</g>
</svg>
